<?xml version="1.0" standalone="no"?>
<!DOCTYPE svg PUBLIC "-//W3C//DTD SVG 20010904//EN"
 "http://www.w3.org/TR/2001/REC-SVG-20010904/DTD/svg10.dtd">
<svg version="1.0" xmlns="http://www.w3.org/2000/svg"
 width="698.000000pt" height="115.000000pt" viewBox="0 0 698.000000 115.000000"
 preserveAspectRatio="xMidYMid meet">

<g transform="translate(0.000000,115.000000) scale(0.100000,-0.100000)"
fill="#000000" stroke="none">
<path d="M404 1029 c-59 -17 -126 -71 -158 -129 -28 -49 -31 -64 -31 -140 0
-64 5 -95 19 -124 104 -209 435 -206 525 5 28 63 31 175 6 232 -26 62 -90 124
-151 147 -58 21 -154 26 -210 9z m176 -56 c44 -44 60 -103 60 -217 0 -141 -47
-232 -126 -243 -62 -8 -100 16 -132 85 -22 49 -26 71 -26 157 0 173 45 255
141 255 39 0 51 -5 83 -37z"/>
<path d="M2813 1023 c-4 -10 -48 -119 -99 -243 -92 -222 -115 -259 -156 -260
-10 0 -18 -6 -18 -14 0 -10 19 -13 88 -10 48 2 95 4 105 4 26 0 20 20 -6 20
-13 0 -32 6 -42 14 -19 14 -19 15 1 78 l20 63 98 0 98 0 24 -59 c13 -33 24
-65 24 -72 0 -6 -17 -16 -37 -21 -70 -16 -33 -26 107 -27 108 -1 140 1 140 11
0 7 -6 13 -14 13 -40 0 -65 44 -161 280 l-98 240 -34 0 c-23 0 -36 -6 -40 -17z
m31 -207 c20 -50 36 -94 36 -98 0 -4 -36 -8 -79 -8 l-79 0 40 100 c22 56 42
99 43 98 2 -2 19 -43 39 -92z"/>
<path d="M850 1016 c0 -9 8 -16 20 -16 11 0 29 -9 40 -20 19 -19 20 -33 20
-223 0 -185 -2 -205 -18 -220 -10 -10 -28 -17 -40 -17 -12 0 -22 -6 -22 -12 0
-10 35 -13 140 -13 105 0 140 3 140 13 0 6 -9 12 -20 12 -11 0 -29 9 -40 20
-17 17 -20 33 -20 104 l0 83 83 5 c97 5 159 33 190 85 23 41 24 115 2 149 -32
49 -73 58 -282 62 -171 3 -193 2 -193 -12z m315 -39 c50 -43 50 -152 0 -194
-19 -17 -39 -23 -71 -23 l-44 0 0 120 0 120 44 0 c32 0 52 -6 71 -23z"/>
<path d="M1440 1015 c0 -8 8 -15 18 -15 10 0 28 -7 40 -16 22 -15 22 -20 22
-224 0 -226 -3 -240 -56 -240 -28 0 -32 -16 -6 -22 9 -3 69 -3 132 -1 63 1
121 3 128 3 6 0 12 5 12 10 0 6 -10 10 -23 10 -55 0 -57 7 -58 238 -1 227 1
238 48 244 15 2 28 9 31 16 3 9 -30 12 -142 12 -123 0 -146 -2 -146 -15z"/>
<path d="M1852 1019 c2 -7 19 -17 38 -23 l35 -11 3 -220 c2 -198 1 -221 -15
-232 -9 -7 -27 -13 -40 -13 -30 0 -30 -20 0 -21 12 -1 75 -2 139 -3 88 -1 118
2 118 12 0 6 -9 12 -19 12 -41 0 -51 26 -51 126 0 74 3 94 14 94 12 0 89 -96
164 -206 21 -30 24 -32 109 -36 49 -3 96 -3 105 0 22 5 13 22 -10 22 -21 0
-84 65 -166 167 l-57 73 41 16 c61 25 90 65 90 126 0 65 -33 101 -108 117 -72
15 -395 15 -390 0z m336 -55 c21 -24 24 -35 20 -86 -6 -75 -27 -99 -97 -106
l-51 -5 0 118 0 118 52 -5 c41 -4 57 -11 76 -34z"/>
<path d="M314 267 c-23 -20 -28 -34 -32 -85 -4 -58 -3 -63 26 -92 32 -32 64
-38 105 -19 33 15 47 49 47 110 0 42 -5 55 -29 80 -37 36 -79 38 -117 6z m88
-24 c24 -22 25 -109 1 -135 -38 -43 -83 -8 -83 65 0 75 39 109 82 70z"/>
<path d="M710 280 c0 -5 7 -10 15 -10 8 0 15 5 15 10 0 6 -7 10 -15 10 -8 0
-15 -4 -15 -10z"/>
<path d="M1050 175 c0 -96 3 -115 15 -115 12 0 15 19 15 115 0 96 -3 115 -15
115 -12 0 -15 -19 -15 -115z"/>
<path d="M1222 278 c-14 -14 -15 -43 -2 -67 7 -14 5 -23 -10 -36 -24 -22 -26
-77 -4 -99 18 -19 47 -20 75 -5 14 7 24 7 33 0 17 -14 29 -2 15 16 -6 7 -9 26
-6 43 7 33 -7 49 -21 24 -7 -13 -11 -12 -25 9 -15 23 -15 26 3 42 24 22 26 48
4 69 -18 19 -45 21 -62 4z m52 -24 c6 -16 -9 -44 -25 -44 -11 0 -22 38 -14 50
10 15 32 12 39 -6z m-11 -113 c22 -38 21 -48 -3 -56 -40 -13 -68 43 -38 73 17
17 22 15 41 -17z"/>
<path d="M1440 175 c0 -107 1 -115 19 -115 16 0 20 8 23 43 3 40 5 42 38 45
48 5 70 27 70 72 0 52 -23 70 -93 70 l-57 0 0 -115z m106 60 c9 -38 -2 -55
-36 -55 -28 0 -30 2 -30 40 0 38 2 40 30 40 23 0 31 -5 36 -25z"/>
<path d="M1620 175 c0 -70 4 -115 10 -115 6 0 10 26 10 58 0 60 11 82 41 82
22 0 29 -20 29 -86 0 -30 5 -54 10 -54 15 0 12 123 -3 145 -11 14 -22 17 -45
12 -32 -6 -32 -6 -32 33 0 22 -4 40 -10 40 -6 0 -10 -45 -10 -115z"/>
<path d="M2930 280 c0 -5 5 -10 10 -10 6 0 10 5 10 10 0 6 -4 10 -10 10 -5 0
-10 -4 -10 -10z"/>
<path d="M3200 175 c0 -108 1 -115 20 -115 19 0 20 7 20 115 0 108 -1 115 -20
115 -19 0 -20 -7 -20 -115z"/>
<path d="M3790 280 c0 -5 7 -10 15 -10 8 0 15 5 15 10 0 6 -7 10 -15 10 -8 0
-15 -4 -15 -10z"/>
<path d="M4230 175 c0 -94 3 -115 14 -115 11 0 16 14 18 47 2 26 9 48 15 51 7
2 27 -19 44 -47 20 -32 39 -51 50 -51 25 0 24 5 -6 56 l-26 43 21 21 c11 11
20 33 20 48 0 44 -27 62 -93 62 l-57 0 0 -115z m113 63 c16 -24 -9 -48 -49
-48 -31 0 -34 3 -34 28 0 16 3 32 7 36 13 12 66 2 76 -16z"/>
<path d="M5220 175 c0 -70 4 -115 10 -115 6 0 10 26 10 58 0 60 11 82 42 82
22 0 31 -34 26 -95 -2 -31 1 -45 9 -45 18 0 17 120 0 145 -11 14 -22 17 -45
12 -32 -6 -32 -6 -32 33 0 22 -4 40 -10 40 -6 0 -10 -45 -10 -115z"/>
<path d="M5830 251 l0 -40 -35 6 c-33 5 -36 3 -51 -32 -28 -69 2 -123 69 -123
l37 0 0 114 c0 69 -4 114 -10 114 -5 0 -10 -18 -10 -39z m-10 -70 c14 -28 13
-64 -4 -87 -31 -40 -68 19 -52 82 8 29 41 32 56 5z"/>
<path d="M5989 188 c-17 -57 -34 -109 -36 -116 -3 -7 3 -12 15 -12 13 0 22 9
26 25 5 21 12 25 46 25 34 0 41 -4 46 -25 4 -17 13 -25 28 -25 22 0 21 1 -14
113 -30 93 -40 113 -58 115 -19 3 -25 -8 -53 -100z m59 -36 c-29 -5 -31 2 -17
45 l13 38 11 -40 c11 -37 10 -40 -7 -43z"/>
<path d="M6450 175 c0 -96 3 -115 15 -115 12 0 15 19 15 115 0 96 -3 115 -15
115 -12 0 -15 -19 -15 -115z"/>
<path d="M6780 280 c0 -5 5 -10 10 -10 6 0 10 5 10 10 0 6 -4 10 -10 10 -5 0
-10 -4 -10 -10z"/>
<path d="M650 263 c-1 -7 -3 -18 -4 -23 0 -6 -8 -15 -16 -20 -13 -8 -13 -10 0
-15 11 -4 14 -17 12 -50 -5 -63 4 -95 28 -95 23 0 27 15 5 24 -11 4 -15 21
-15 61 0 42 3 55 15 55 19 0 20 16 1 23 -8 3 -16 16 -19 29 -2 13 -5 17 -7 11z"/>
<path d="M1928 264 c-5 -4 -8 -15 -8 -25 0 -9 -6 -20 -12 -22 -10 -4 -10 -7
-1 -14 7 -5 13 -38 15 -73 3 -59 5 -65 26 -68 25 -4 30 13 7 22 -11 4 -15 21
-15 61 0 42 3 55 15 55 19 0 20 16 1 23 -8 3 -16 15 -18 27 -2 12 -6 18 -10
14z"/>
<path d="M2860 252 c0 -10 -6 -24 -12 -30 -10 -10 -10 -15 -1 -20 7 -4 13 -36
15 -72 3 -59 5 -65 26 -68 12 -2 22 1 22 7 0 6 -7 11 -15 11 -24 0 -21 115 3
125 16 6 16 7 0 16 -10 6 -18 19 -18 29 0 11 -4 20 -10 20 -5 0 -10 -8 -10
-18z"/>
<path d="M490 108 c0 -61 4 -108 9 -108 6 0 11 15 13 33 2 22 8 31 17 29 63
-14 107 77 66 136 -13 17 -24 21 -60 20 l-45 -2 0 -108z m85 32 c0 -46 -3 -55
-19 -58 -38 -8 -59 54 -35 99 6 13 18 19 32 17 20 -3 22 -9 22 -58z"/>
<path d="M715 140 c0 -57 4 -80 13 -80 8 0 12 23 12 80 0 57 -4 80 -12 80 -9
0 -13 -23 -13 -80z"/>
<path d="M787 202 c-24 -26 -23 -104 1 -125 33 -30 92 -12 92 29 0 20 -9 17
-30 -8 -26 -32 -54 -14 -58 36 -5 58 34 88 64 49 17 -24 29 -10 14 16 -14 27
-61 28 -83 3z"/>
<path d="M922 208 c-14 -14 -16 -38 -3 -38 5 0 12 7 15 16 7 18 57 16 64 -3 4
-13 -3 -17 -50 -27 -36 -8 -54 -41 -39 -72 9 -21 17 -23 63 -22 l53 1 -3 66
c-2 36 -8 72 -14 79 -13 15 -70 16 -86 0z m78 -79 c0 -25 -22 -49 -45 -49 -20
0 -25 5 -25 24 0 13 6 27 13 29 22 10 57 7 57 -4z"/>
<path d="M1776 198 c-23 -32 -20 -94 4 -118 52 -52 126 7 106 84 -14 57 -80
77 -110 34z m72 -7 c18 -11 20 -75 3 -95 -29 -35 -71 -8 -71 44 0 49 33 73 68
51z"/>
<path d="M2008 209 c-40 -23 -30 -131 14 -145 51 -16 88 20 88 84 0 59 -53 90
-102 61z m74 -34 c24 -53 -19 -116 -57 -85 -18 15 -20 81 -3 98 20 20 48 14
60 -13z"/>
<path d="M2150 199 c-15 -27 -2 -40 15 -16 16 22 60 20 60 -3 0 -8 -15 -18
-38 -23 -45 -11 -64 -39 -48 -73 9 -21 16 -24 67 -21 l56 2 -5 69 c-7 75 -14
86 -64 86 -23 0 -36 -6 -43 -21z m80 -78 c0 -40 -61 -56 -68 -17 -5 22 13 36
46 36 15 0 22 -6 22 -19z"/>
<path d="M2296 198 c-23 -32 -20 -94 4 -118 22 -22 63 -26 77 -8 19 24 23 48
9 48 -8 0 -16 -9 -19 -21 -8 -30 -49 -22 -61 14 -20 56 29 115 60 72 19 -26
37 -14 19 13 -21 30 -68 30 -89 0z"/>
<path d="M2430 193 c-38 -48 -8 -133 47 -133 35 0 63 34 63 78 0 79 -66 111
-110 55z m84 -25 c19 -55 -22 -109 -59 -78 -18 15 -20 81 -3 98 20 20 52 10
62 -20z"/>
<path d="M2570 152 c0 -72 10 -92 45 -92 12 0 26 5 33 12 9 9 12 9 12 0 0 -7
5 -12 10 -12 6 0 10 33 10 80 0 47 -4 80 -10 80 -5 0 -10 -24 -10 -53 0 -60
-17 -91 -46 -85 -16 3 -19 13 -22 71 -4 88 -22 87 -22 -1z"/>
<path d="M2727 213 c-4 -3 -7 -19 -7 -35 0 -25 6 -32 40 -45 27 -11 40 -22 38
-32 -5 -22 -39 -26 -54 -6 -19 26 -37 14 -19 -13 19 -25 66 -30 84 -8 7 8 11
27 9 43 -2 22 -10 30 -38 39 -42 14 -54 44 -18 44 13 0 29 -5 36 -12 17 -17
28 -2 12 17 -12 15 -71 21 -83 8z"/>
<path d="M2930 140 c0 -47 4 -80 10 -80 6 0 10 33 10 80 0 47 -4 80 -10 80 -6
0 -10 -33 -10 -80z"/>
<path d="M2996 198 c-35 -50 -9 -138 40 -138 24 0 64 31 64 50 0 19 -28 10
-33 -11 -4 -15 -12 -20 -28 -17 -49 7 -48 118 0 118 11 0 24 -7 29 -16 5 -9
14 -15 21 -13 8 3 7 11 -4 27 -21 30 -68 30 -89 0z"/>
<path d="M3270 139 c0 -62 3 -79 15 -79 11 0 15 16 17 68 3 61 5 67 26 70 21
3 22 0 22 -67 0 -56 3 -71 15 -71 11 0 15 13 15 54 0 67 7 86 30 86 23 0 30
-19 30 -86 0 -30 5 -54 10 -54 14 0 13 133 -2 148 -15 15 -55 16 -63 2 -5 -7
-11 -8 -19 -1 -6 5 -31 10 -54 9 l-42 0 0 -79z"/>
<path d="M3512 208 c-14 -14 -16 -38 -3 -38 5 0 12 7 15 16 7 18 57 16 64 -3
4 -13 -3 -17 -50 -27 -59 -13 -59 -96 0 -96 15 0 33 5 40 12 9 9 12 9 12 0 0
-7 6 -12 13 -12 15 0 11 128 -5 148 -13 15 -70 16 -86 0z m78 -79 c0 -24 -22
-49 -44 -49 -30 0 -40 24 -20 45 18 17 64 20 64 4z"/>
<path d="M3656 204 c-10 -10 -16 -33 -16 -63 0 -58 24 -87 65 -77 23 6 26 4
23 -15 -5 -33 -36 -49 -52 -26 -17 21 -40 23 -32 1 3 -9 6 -18 6 -20 0 -10 77
-3 88 8 8 8 12 47 12 108 l0 97 -39 1 c-25 1 -46 -4 -55 -14z m63 -18 c7 -8
11 -31 9 -52 -6 -73 -68 -68 -68 5 0 54 32 79 59 47z"/>
<path d="M3790 140 c0 -64 3 -80 15 -80 12 0 15 16 15 80 0 64 -3 80 -15 80
-12 0 -15 -16 -15 -80z"/>
<path d="M3850 138 c0 -62 3 -78 15 -78 11 0 15 16 17 68 3 64 4 67 28 67 24
0 25 -3 28 -67 4 -89 22 -88 22 1 0 80 -8 91 -68 88 l-42 -1 0 -78z"/>
<path d="M4005 197 c-20 -28 -19 -87 1 -116 14 -19 23 -22 50 -18 38 6 37 7
24 -27 -11 -29 -47 -36 -56 -11 -4 8 -13 15 -20 15 -12 0 -12 -4 -4 -20 8 -15
21 -20 51 -20 50 0 59 20 59 134 l0 83 -45 1 c-35 1 -48 -3 -60 -21z m76 -24
c14 -36 -1 -87 -26 -92 -23 -4 -45 24 -45 57 0 60 51 86 71 35z"/>
<path d="M4426 198 c-37 -52 -9 -138 44 -138 28 0 60 22 60 41 0 14 -16 11
-30 -6 -18 -21 -47 -19 -60 5 -16 31 -4 40 52 40 50 0 50 0 44 28 -13 53 -81
72 -110 30z m82 -20 c3 -15 -4 -18 -38 -18 -38 0 -40 1 -30 21 14 25 63 23 68
-3z"/>
<path d="M4570 205 c-19 -23 -7 -49 34 -70 21 -11 38 -23 37 -27 0 -5 -1 -12
-1 -18 0 -17 -48 -11 -59 7 -5 10 -13 14 -17 10 -14 -14 12 -42 43 -45 19 -2
35 4 48 18 25 28 8 64 -39 80 -20 6 -36 16 -36 21 0 17 32 23 52 10 25 -15 35
-7 18 14 -16 19 -64 20 -80 0z"/>
<path d="M4714 206 c-14 -11 -19 -26 -19 -66 0 -56 18 -80 62 -80 28 0 74 41
53 48 -7 3 -19 -3 -25 -12 -17 -22 -41 -20 -59 6 -21 30 -12 38 45 38 40 0 49
3 49 18 0 52 -62 80 -106 48z m76 -26 c10 -18 8 -20 -30 -20 -41 0 -49 7 -28
28 18 18 46 14 58 -8z"/>
<path d="M4862 208 c-14 -14 -16 -38 -3 -38 5 0 12 7 15 16 4 10 15 14 33 12
39 -4 36 -31 -4 -39 -42 -8 -63 -26 -63 -53 0 -29 18 -46 50 -46 14 0 31 5 38
12 9 9 12 9 12 0 0 -7 5 -12 10 -12 14 0 13 133 -2 148 -7 7 -26 12 -43 12
-17 0 -36 -5 -43 -12z m78 -79 c0 -25 -22 -49 -46 -49 -32 0 -43 28 -19 46 22
17 65 18 65 3z"/>
<path d="M5000 139 c0 -96 18 -106 22 -12 3 62 5 68 28 73 30 7 16 18 -22 18
l-28 0 0 -79z"/>
<path d="M5096 198 c-20 -29 -21 -87 0 -116 25 -36 82 -24 97 21 4 11 1 17 -8
17 -8 0 -15 -6 -15 -14 0 -8 -10 -18 -22 -22 -39 -12 -63 49 -38 97 13 24 46
25 59 2 5 -10 13 -14 17 -10 15 14 -12 42 -44 45 -22 2 -34 -3 -46 -20z"/>
<path d="M5455 198 c-11 -16 -12 -24 -4 -27 7 -2 16 4 21 13 11 20 54 21 61 2
7 -18 -1 -26 -27 -26 -32 0 -66 -28 -66 -54 0 -34 19 -45 73 -43 l47 2 0 66
c0 37 -5 70 -12 77 -21 21 -75 15 -93 -10z m85 -66 c0 -18 -33 -52 -51 -52
-28 0 -37 30 -14 46 20 15 65 19 65 6z"/>
<path d="M5590 138 c0 -62 3 -78 15 -78 11 0 15 16 17 68 3 64 4 67 28 67 24
0 25 -3 28 -67 4 -89 22 -88 22 1 0 80 -8 91 -68 88 l-42 -1 0 -78z"/>
<path d="M6160 138 c0 -45 4 -78 10 -78 6 0 10 26 10 58 0 65 9 85 36 80 16
-3 19 -14 22 -71 2 -51 6 -67 17 -67 18 0 21 93 5 134 -8 23 -14 25 -55 24
l-45 -2 0 -78z"/>
<path d="M6322 208 c-14 -14 -16 -38 -3 -38 5 0 11 7 15 15 7 19 52 20 59 1 7
-18 -1 -26 -27 -26 -32 0 -66 -28 -66 -54 0 -34 18 -44 75 -43 l50 1 -3 65
c-2 36 -8 72 -14 79 -13 15 -70 16 -86 0z m72 -90 c-12 -40 -56 -53 -68 -21
-9 21 18 43 52 43 20 0 22 -4 16 -22z"/>
<path d="M6526 143 c29 -95 29 -98 3 -124 l-21 -21 23 4 c19 2 28 19 56 103
36 108 37 115 24 115 -5 0 -17 -24 -26 -52 -10 -29 -21 -57 -25 -61 -4 -4 -13
19 -20 52 -8 36 -18 61 -26 61 -9 0 -6 -20 12 -77z"/>
<path d="M6650 205 c-19 -23 -7 -49 35 -71 22 -11 40 -27 40 -35 0 -21 -47
-24 -62 -3 -16 22 -31 9 -17 -14 15 -23 67 -27 88 -6 28 27 16 57 -32 79 -23
11 -41 24 -39 30 5 14 57 19 57 6 0 -6 5 -11 10 -11 6 0 10 6 10 14 0 27 -69
36 -90 11z"/>
<path d="M6780 140 c0 -57 4 -80 13 -80 8 0 12 23 12 80 0 57 -4 80 -12 80 -9
0 -13 -23 -13 -80z"/>
<path d="M6840 200 c-15 -29 2 -56 45 -70 25 -8 35 -17 33 -28 -5 -24 -36 -27
-59 -6 -22 19 -33 15 -23 -10 7 -17 42 -30 70 -24 49 9 43 83 -9 96 -40 10
-50 42 -13 42 14 0 26 -4 26 -10 0 -5 7 -10 15 -10 13 0 14 4 5 20 -8 14 -21
20 -45 20 -24 0 -37 -6 -45 -20z"/>
</g>
</svg>
